<svg version="1.1" id="Layer_1" xmlns="http://www.w3.org/2000/svg" xmlns:xlink="http://www.w3.org/1999/xlink" x="0px" y="0px" width="100%" viewBox="0 0 1080 1080" enable-background="new 0 0 1080 1080" xml:space="preserve">

<path fill="#141414" opacity="1.000000" stroke="none" d="
M535.658569,382.374207 
	C533.120483,377.274048 531.001160,372.354004 528.273621,367.798065 
	C526.966187,365.614166 524.477661,362.670898 522.578735,362.710297 
	C520.587219,362.751648 517.900391,365.588348 516.825989,367.830414 
	C507.400635,387.499268 498.287842,407.317657 489.038696,427.071259 
	C485.365906,434.915253 481.469177,442.655914 477.887512,450.540466 
	C475.182983,456.494110 476.770294,459.110535 483.371796,459.044800 
	C503.001648,458.849335 522.627686,458.286957 542.257324,458.044556 
	C556.919739,457.863464 571.585510,457.936493 586.249817,457.930786 
	C638.243469,457.910492 690.237122,457.891205 742.230774,457.927673 
	C745.371094,457.929871 748.600708,458.042084 751.632324,458.762024 
	C757.715088,460.206543 759.108643,463.082336 756.341492,468.622894 
	C751.132935,479.051666 745.681885,489.359955 740.277222,499.689850 
	C737.652588,504.706299 734.585022,509.516785 732.300049,514.678162 
	C729.862122,520.184998 726.041931,522.181519 720.145020,522.152039 
	C688.149780,521.992004 656.153381,522.074585 624.157349,522.073669 
	C620.509949,522.073547 616.862549,522.073608 613.215088,522.073608 
	C613.212646,522.507263 613.210205,522.940918 613.207825,523.374573 
	C650.221558,523.374573 687.235352,523.374573 724.249146,523.374573 
	C724.309265,523.964478 724.369385,524.554321 724.429504,525.144226 
	C723.168823,525.445740 721.905029,526.021851 720.647827,526.007751 
	C700.710205,525.784973 680.773926,525.437805 660.836243,525.221497 
	C646.396729,525.064819 631.953369,525.179565 617.516479,524.913635 
	C613.022339,524.830811 610.936768,526.592773 610.920532,530.947388 
	C610.898865,536.779358 610.957947,542.611633 610.958984,548.443787 
	C610.970764,613.769165 610.978699,679.094543 610.985840,744.419922 
	C610.987000,755.437134 607.570007,758.442139 596.760437,758.253662 
	C580.937256,757.977783 565.104370,758.305298 549.278198,758.136475 
	C541.756348,758.056274 541.399048,757.459473 541.385437,750.009094 
	C541.256042,679.221802 541.154541,608.434387 540.953857,537.647339 
	C540.944580,534.388184 540.709717,530.854675 539.448120,527.938538 
	C537.548401,523.547791 533.306396,522.104309 528.661865,522.103394 
	C503.331940,522.098450 478.002045,522.101135 452.672119,522.117554 
	C446.419891,522.121582 441.989746,524.757690 439.264313,530.637085 
	C426.584076,557.990662 413.773132,585.283813 400.955292,612.573364 
	C398.477844,617.847900 395.797211,623.028564 393.142059,628.217590 
	C391.127045,632.155640 387.845093,633.990845 383.405975,633.986084 
	C363.575500,633.964844 343.744659,634.062317 323.914703,633.961853 
	C318.526245,633.934570 317.169403,631.352722 319.498260,626.504944 
	C338.104065,587.775269 356.718475,549.049744 375.297028,510.306946 
	C398.053314,462.852051 420.815094,415.399719 443.497284,367.909393 
	C452.901398,348.219696 462.219543,328.486938 471.332214,308.661316 
	C474.109711,302.618530 478.087372,299.883240 484.881042,299.950195 
	C509.375580,300.191650 533.874695,300.144348 558.370544,299.976410 
	C565.327759,299.928741 569.940430,302.533142 573.068176,308.877808 
	C588.388245,339.955078 603.918640,370.928802 619.382202,401.935333 
	C622.578857,408.345154 625.844727,414.720703 629.010071,421.145844 
	C631.590698,426.384033 631.263977,427.623077 625.766602,429.502228 
	C622.080200,430.762360 618.120117,431.769592 614.257263,431.864746 
	C601.766052,432.172455 589.252625,431.707428 576.769226,432.149384 
	C570.564270,432.369080 564.900635,431.185394 559.605347,428.359772 
	C557.736389,427.362457 556.106384,425.280701 555.149536,423.313538 
	C548.592590,409.833557 542.243530,396.252502 535.658569,382.374207 
M573.526306,429.939850 
	C573.992920,429.852875 574.459595,429.765900 574.926208,429.678894 
	C574.919678,429.586548 574.913086,429.494202 574.906555,429.401855 
	C573.307556,429.401855 571.708618,429.401855 570.109619,429.401855 
	C570.110901,429.585388 570.112122,429.768890 570.113403,429.952423 
	C571.077637,429.952423 572.041931,429.952423 573.526306,429.939850 
z" data-index="1" style="visibility: visible; opacity: 1; fill: rgb(255, 255, 255);"></path>

<path fill="#141414" opacity="1.000000" stroke="none" d="
M382.581390,636.448120 
	C361.774445,636.374817 341.318756,636.374817 320.863068,636.374817 
	C320.867401,636.023376 320.871765,635.671997 320.876129,635.320557 
	C342.372925,635.320557 363.869720,635.320557 385.366547,635.320557 
	C385.394714,635.572998 385.422913,635.825439 385.451111,636.077881 
	C384.611603,636.225708 383.772125,636.373535 382.581390,636.448120 
z" data-index="3" style="visibility: visible;"></path>
<path fill="#000000" opacity="1.000000" stroke="none" d="
M573.266235,429.946136 
	C572.041931,429.952423 571.077637,429.952423 570.113403,429.952423 
	C570.112122,429.768890 570.110901,429.585388 570.109619,429.401855 
	C571.708618,429.401855 573.307556,429.401855 574.906555,429.401855 
	C574.913086,429.494202 574.919678,429.586548 574.926208,429.678894 
	C574.459595,429.765900 573.992920,429.852875 573.266235,429.946136 
z" data-index="4" style="visibility: visible;"></path>
</svg>